<svg width="26" height="26" viewBox="0 0 26 26" fill="none" xmlns="http://www.w3.org/2000/svg">
<path fill-rule="evenodd" clip-rule="evenodd" d="M7.85926 20.4492C8.31823 20.4492 8.69128 20.8223 8.69128 21.2812C8.69128 21.7402 8.31823 22.1122 7.85926 22.1122C7.40028 22.1122 7.02832 21.7402 7.02832 21.2812C7.02832 20.8223 7.40028 20.4492 7.85926 20.4492Z" stroke="#52341E" stroke-width="1.63142" stroke-linecap="round" stroke-linejoin="round"/>
<path fill-rule="evenodd" clip-rule="evenodd" d="M20.0976 20.4492C20.5566 20.4492 20.9297 20.8223 20.9297 21.2812C20.9297 21.7402 20.5566 22.1122 20.0976 22.1122C19.6387 22.1122 19.2656 21.7402 19.2656 21.2812C19.2656 20.8223 19.6387 20.4492 20.0976 20.4492Z" stroke="#52341E" stroke-width="1.63142" stroke-linecap="round" stroke-linejoin="round"/>
<path d="M2.77734 3.51465L5.03958 3.90619L6.08695 16.3844C6.17179 17.4013 7.02121 18.1822 8.0414 18.1822H19.9094C20.8839 18.1822 21.7105 17.4666 21.8508 16.5008L22.883 9.36819C23.0102 8.48831 22.3283 7.70087 21.4397 7.70087H5.40284" stroke="#52341E" stroke-width="1.63142" stroke-linecap="round" stroke-linejoin="round"/>
</svg>
